<svg id="Layer_1" data-name="Layer 1" xmlns="http://www.w3.org/2000/svg" width="373.71" height="379.23" viewBox="0 0 373.71 379.23">
  <defs>
    <style>
      .cls-1 {
        fill: #de8023;
      }
    </style>
  </defs>
  <g>
    <path class="cls-1" d="M365.91,376.69c-11.63,4.53-22.37,1.93-32.92.39Q210.33,359.17,87.73,340.8c-20.82-3.13-41.57-6.84-62.21-11C17.25,328.13,9.13,325,2.65,317.17c12.3-5,23.68-9.83,35.26-14.19q85-32,170.17-63.71c10.3-3.81,21.14-6.14,31.67-9.34,8.34-2.54,15-.49,20.27,6.44,9.14,12,18.52,23.77,27.6,35.79q37.22,49.26,74.25,98.65C363.13,372.48,364.25,374.26,365.91,376.69Z"/>
    <path class="cls-1" d="M1,308.87C-1.82,302.09,2,298,5.7,294q43.11-46.74,86.23-93.48Q180.88,104.64,270.08,9A36.68,36.68,0,0,1,281.41.66c3.92-1.76,7.13,0,6.24,5.28-10,59.66-19.49,119.45-40.87,176.5-4,10.62-10.17,19.53-20.65,24.75C201.94,219.25,178.05,232,153.39,243c-48.32,21.62-97.08,42.25-145.67,63.27C5.57,307.24,3.33,308,1,308.87Z"/>
    <path class="cls-1" d="M370,371.68c-9.92-16-20.17-31.9-29.69-48.18-19.8-33.87-39-68.11-58.94-101.89-7.63-12.92-9.2-26.36-7.42-40.7Q284.55,95.47,295.18,10a30.8,30.8,0,0,1,1.25-4.53l2.24-.5c2.65,7.73,6.15,15.29,7.82,23.23C313.93,63.56,320.68,99,328,134.39,343,207,358.25,279.52,373.1,352.14c1.26,6.16.17,12.8.17,19.21Z"/>
  </g>
</svg>
