<svg id="Layer_1" data-name="Layer 1" xmlns="http://www.w3.org/2000/svg" width="1607.06" height="379.23" viewBox="0 0 1607.06 379.23">
  <g>
    <path d="M365.91,376.69c-11.63,4.53-22.37,1.93-32.92.39Q210.33,359.17,87.73,340.8c-20.82-3.13-41.57-6.84-62.21-11C17.25,328.13,9.13,325,2.65,317.17c12.3-5,23.68-9.83,35.26-14.19q85-32,170.17-63.71c10.3-3.81,21.14-6.14,31.67-9.34,8.34-2.54,15-.49,20.27,6.44,9.14,12,18.52,23.77,27.6,35.79q37.22,49.26,74.25,98.65C363.13,372.48,364.25,374.26,365.91,376.69Z"/>
    <path d="M1,308.87C-1.82,302.09,2,298,5.7,294q43.11-46.74,86.23-93.48Q180.88,104.64,270.08,9A36.68,36.68,0,0,1,281.41.66c3.92-1.76,7.13,0,6.24,5.28-10,59.66-19.49,119.45-40.87,176.5-4,10.62-10.17,19.53-20.65,24.75C201.94,219.25,178.05,232,153.39,243c-48.32,21.62-97.08,42.25-145.67,63.27C5.57,307.24,3.33,308,1,308.87Z"/>
    <path d="M411.93,130.83c14.28,0,27.65-.18,41,.24,1.63.05,3.93,3,4.62,5.08,14.93,44.15,32.14,87.58,41.74,133.39.32,1.52,1.1,2.94,2.32,6.14,3.21-13.05,5.36-24.54,8.87-35.6,11.21-35.31,22.87-70.48,34.6-105.63.53-1.59,3.3-3.44,5.06-3.48,13.16-.29,26.34-.16,40.28-.16.17,3,.45,5.5.45,8,0,54.31-.08,108.62.14,162.93,0,6.19-1.47,8.61-8,8.1-7.34-.56-14.74-.13-23-.13v-142c-1.64,6.23-3.15,13.32-5.38,20.18-11.25,34.55-22.5,69.1-34.11,103.53-6.54,19.41-6.86,19.45-27.92,18.1-2.31-.15-5.73-2.6-6.47-4.73q-19.81-57.65-39-115.51c-2.24-6.73-3.64-13.72-6.89-20.49,0,2.9,0,5.8,0,8.69.42,41.63.72,83.25,1.38,124.87.1,6.18-2,7.94-7.84,7.45-6.87-.57-16.7,2.06-19.93-1.5-3.7-4.08-1.9-13.43-1.91-20.49q-.15-73.57-.05-147.15Z"/>
    <path d="M881.16,130.83c14.1,0,27.24-.18,40.36.22,1.74.06,4.27,2.84,5,4.86,14.8,44,32.12,87.12,41.55,132.74a10.39,10.39,0,0,0,3,5.54c1.54-6.21,2.78-12.51,4.69-18.61q18.74-59.88,37.85-119.65c.64-2,3.15-4.82,4.87-4.88,13.37-.4,26.76-.22,40.8-.22.18,3.17.44,5.71.44,8.25,0,54.1-.07,108.19.14,162.28,0,6.3-1.27,9.16-8.26,8.53s-14.26-.14-21.66-.14V164.37c-3.34,12.68-5.74,24.09-9.37,35.11-11.67,35.43-23.75,70.73-35.92,106-.63,1.83-3.48,3.92-5.46,4.1-21.82,2-21.94,1.92-28.89-18.71-13.75-40.77-30.16-80.7-39.42-122.91-.25-1.11-1-2.12,0-3.05v131c0,13.86,0,13.86-14.17,13.86-15.45,0-15.45,0-15.45-15.44V130.83Z"/>
    <path d="M370,371.68c-9.92-16-20.17-31.9-29.69-48.18-19.8-33.87-39-68.11-58.94-101.89-7.63-12.92-9.2-26.36-7.42-40.7Q284.55,95.47,295.18,10a30.8,30.8,0,0,1,1.25-4.53l2.24-.5c2.65,7.73,6.15,15.29,7.82,23.23C313.93,63.56,320.68,99,328,134.39,343,207,358.25,279.52,373.1,352.14c1.26,6.16.17,12.8.17,19.21Z"/>
    <path d="M1502.18,253h-96.46c1.1,12.65,4.65,23.21,14.2,30.76,14.42,11.41,37,8,47.86-6.72,1.13-1.54,3.18-3.29,4.87-3.36,8.31-.35,16.65-.16,26-.16-4,14.64-11.94,25.17-24.25,31.48-23.69,12.15-47.83,12.27-70.5-2.19-22.48-14.34-29.62-36.78-28.15-62.17s12.34-45.73,36.32-56.78c30-13.83,74.51-5.49,86.16,41.16C1500.36,233.7,1500.77,242.8,1502.18,253Zm-33-19.44c1.58-19-11.78-33.69-30.17-33.79s-33.31,15.48-32,33.79Z"/>
    <path d="M751,253.12H655.29c-1.12,14.88,8.64,30.61,21.16,35.14,15.22,5.51,31.11,1.09,39.87-11,1-1.44,2.63-3.46,4-3.51,8.75-.33,17.52-.17,27.11-.17-5.19,16.87-15,27.89-29.94,34.25-27.63,11.79-71.12,6.93-87.83-32.51-13.15-31-3.24-69.46,22.64-86.9,36.21-24.41,84.47-6,94.51,36.31C748.91,233.49,749.49,242.57,751,253.12Zm-33-19.48c.72-19.75-11.78-33.66-30-33.81-16.61-.13-30.71,9.3-32.67,33.81Z"/>
    <path d="M1223.53,250.48c-.72,23.59-11.34,46.3-38.3,57.47-25.1,10.4-49.6,7.47-70.61-10.86-27.08-23.63-28.89-71.7-4.28-98.86,23-25.34,66.76-27.33,92.38-3.89C1217.81,208.14,1223.55,226,1223.53,250.48Zm-101-4.59c2,8.14,3.05,16.78,6.11,24.67,5.07,13,15.18,19.83,29.53,19.9s24.19-6.88,29.71-19.73c7-16.38,7-33.09.29-49.56-5.34-13.2-15-20.67-29.8-20.64-14.41,0-25,6.91-30.16,21.1C1125.53,229.16,1124.53,237.32,1122.58,245.89Z"/>
    <path d="M1239,181.31c9.43,0,18.46-.22,27.46.21,1.59.07,3.89,2.58,4.43,4.39,8.65,28.57,17.08,57.21,25.51,85.85,1,3.31,1.64,6.72,4.06,10.11,1.22-4.95,2.21-10,3.69-14.84q12.23-40.47,24.78-80.83c.59-1.89,2.81-4.57,4.39-4.65,8.77-.45,17.57-.22,27.47-.22-1.82,5.49-3.2,10-4.76,14.37-12.83,36.27-25.74,72.51-38.46,108.82-1.3,3.7-3,5.47-7.1,5.31-7.66-.29-15.36.23-23-.28-2.2-.14-5.5-2.17-6.18-4.08-14.14-40.12-28-80.34-41.85-120.54A21.89,21.89,0,0,1,1239,181.31Z"/>
    <path d="M1607,206.62c-6.5.31-11.59,0-16.48.88-15,2.63-26.15,13.3-27.08,28.42-1.3,21.19-.9,42.48-1.2,63.73,0,3,0,6.09,0,10.05-9.45,0-18,.1-26.55,0-5.08-.08-3.68-4.15-3.69-6.93q-.11-51.27,0-102.52c0-4.54.18-9.09,0-13.62-.2-4.09,1.55-5.5,5.52-5.35,7.4.29,16.56-2.23,21.66,1.26,3.81,2.6,2.39,12.82,3.4,20.47,2.29-3.17,4.22-6,6.32-8.75,8.08-10.44,18.91-14.92,32-14.64,4.44.1,6.48,1.8,6.29,6.49C1606.77,192.92,1607,199.79,1607,206.62Z"/>
    <path d="M777.68,230.29h66.69v25.89H777.68Z"/>
  </g>
</svg>
