<svg id="Layer_1" data-name="Layer 1" xmlns="http://www.w3.org/2000/svg" width="163.72" height="112.36" viewBox="0 0 163.72 112.36"><defs><style>.cls-1{fill:none;stroke:#1f93bf;stroke-miterlimit:10;stroke-width:4px;}.cls-2{fill:#1f93bf;}</style></defs><rect class="cls-1" x="8.25" y="7.34" width="149.04" height="98.6" rx="9.63"/><line class="cls-1" x1="8.25" y1="25.22" x2="157.3" y2="25.22"/><circle class="cls-2" cx="22.7" cy="16.74" r="4.13"/><circle class="cls-2" cx="144" cy="16.74" r="4.13"/><path class="cls-2" d="M64.08,64.61V58.25H70c4.18,0,8.59-1.11,8.65-4.94,0-2.35-1.88-5.47-8.47-5.47-3.65,0-8.59,1.3-8.59,5.06H53.85c0-8.88,8.82-12.12,16.41-12.12,7.76,0,16.12,3.77,16.18,12.53a8.68,8.68,0,0,1-5.71,8.12c3.94,1.29,6.71,5.18,6.71,8.65,0,10-9.48,13-17.42,13S53.26,79.84,53.2,70.49H61c0,4.23,5.71,5.7,9.06,5.7,3.94,0,9.18-1.64,9.18-6.06,0-2.47-1.35-5.52-8.77-5.52Z"/><path class="cls-2" d="M91.55,76h6.18V48.43H91.31V41.37h14.12V76h5.71v6.59H91.55Z"/></svg>